<svg width="21" height="19" viewBox="0 0 21 19" fill="none" xmlns="http://www.w3.org/2000/svg">
<path d="M15.2393 0.201172C16.5803 0.201172 17.8703 0.731172 18.8193 1.68217C19.7693 2.63117 20.3003 3.91117 20.3003 5.25117V13.1512C20.3003 15.9412 18.0303 18.2012 15.2393 18.2012H5.36029C2.56929 18.2012 0.300293 15.9412 0.300293 13.1512V5.25117C0.300293 2.46117 2.55929 0.201172 5.36029 0.201172H15.2393ZM16.3703 5.40117C16.1603 5.39017 15.9603 5.46117 15.8093 5.60117L11.3003 9.20117C10.7203 9.68217 9.88929 9.68217 9.30029 9.20117L4.80029 5.60117C4.48929 5.37117 4.05929 5.40117 3.80029 5.67117C3.53029 5.94117 3.50029 6.37117 3.72929 6.67117L3.86029 6.80117L8.41029 10.3512C8.97029 10.7912 9.64929 11.0312 10.3603 11.0312C11.0693 11.0312 11.7603 10.7912 12.3193 10.3512L16.8303 6.74117L16.9103 6.66117C17.1493 6.37117 17.1493 5.95117 16.8993 5.66117C16.7603 5.51217 16.5693 5.42117 16.3703 5.40117Z" fill="white"/>
</svg>
