<svg width="21" height="19" viewBox="0 0 21 19" fill="none" xmlns="http://www.w3.org/2000/svg">
<g clip-path="url(#clip0)">
<path d="M7.79817 17.086C7.82359 16.6295 7.84704 16.1913 7.87441 15.7551C7.94481 14.623 8.01913 13.4888 8.08561 12.3567C8.08811 12.267 8.10892 12.1788 8.14667 12.098C8.18442 12.0172 8.23823 11.9457 8.30459 11.8881C11.1517 9.23569 13.9949 6.57991 16.8341 3.92076C16.9339 3.82743 17.0766 3.61845 17.0414 3.55758C16.9358 3.3689 16.7285 3.43586 16.5701 3.51093C16.3603 3.61132 16.1577 3.72726 15.964 3.85785C12.5251 6.10582 9.0874 8.35651 5.65109 10.6099C5.59149 10.6557 5.52182 10.6852 5.44838 10.6959C5.37495 10.7065 5.30009 10.6979 5.23069 10.6708C3.72502 10.1717 2.21743 9.6827 0.71176 9.1836C0.559728 9.13601 0.414382 9.06779 0.279573 8.98071C-0.0548023 8.75551 -0.111496 8.42076 0.195504 8.15498C0.436607 7.94031 0.709269 7.76701 1.00311 7.64167C2.01602 7.21358 3.04063 6.81594 4.06136 6.40814L14.8768 2.0887C16.372 1.48951 17.8711 0.892356 19.3742 0.297225C20.0782 0.0192719 20.6257 0.372289 20.6941 1.15543C20.7122 1.35342 20.7016 1.55308 20.6628 1.74784C20.071 4.65722 19.4739 7.56524 18.8717 10.4719C18.418 12.6834 17.9657 14.8948 17.5146 17.1063C17.2839 18.2282 16.5369 18.5265 15.6433 17.8367L11.3414 14.5459L11.0324 14.3146L9.6636 15.6962C9.29011 16.0695 8.91858 16.4469 8.53924 16.8141C8.44377 16.9149 8.32742 16.9918 8.19899 17.0389C8.07057 17.086 7.9335 17.1021 7.79817 17.086Z" fill="white"/>
</g>
<defs>
<clipPath id="clip0">
<rect width="20.7" height="18" fill="white" transform="translate(0 0.201172)"/>
</clipPath>
</defs>
</svg>
