<svg width="23" height="19" viewBox="0 0 23 19" fill="none" xmlns="http://www.w3.org/2000/svg">
<g clip-path="url(#clip0)">
<path d="M0.700195 16.248C0.876384 16.3546 1.04879 16.4725 1.22873 16.5715C3.77468 18.0052 6.72555 18.5165 9.59585 18.0214C12.078 17.6613 14.3819 16.5053 16.1711 14.722C17.4631 13.469 18.4842 11.9568 19.1696 10.2816C19.855 8.60643 20.1895 6.80488 20.1522 4.99136C20.1517 4.89366 20.1735 4.79717 20.2158 4.70939C20.258 4.62161 20.3197 4.54487 20.3959 4.4852C20.9769 3.91438 21.5392 3.34356 22.1015 2.73468C22.1755 2.6386 22.2418 2.53679 22.3001 2.43022L20.0509 3.04671L19.9985 2.93257C20.8284 2.36143 21.4512 1.53005 21.7716 0.565566C21.6029 0.649287 21.5092 0.702549 21.3967 0.740604L19.32 1.54356C19.209 1.59144 19.086 1.60214 18.9687 1.57408C18.8514 1.54601 18.7459 1.48064 18.6677 1.38752C17.9797 0.747355 17.1115 0.342131 16.1849 0.228822C15.2583 0.115513 14.32 0.299848 13.502 0.755841C12.688 1.20788 12.0325 1.9055 11.6262 2.75224C11.2199 3.59898 11.0829 4.55296 11.2341 5.48224C11.2341 5.56596 11.2341 5.64969 11.2341 5.77527C9.46336 5.67442 7.73232 5.2028 6.14981 4.39006C4.56731 3.57733 3.16755 2.44103 2.03851 1.05263C1.63774 1.70828 1.42721 2.46538 1.43117 3.23699C1.42134 3.97359 1.58295 4.70215 1.90278 5.36341C2.22261 6.02467 2.69161 6.59995 3.27175 7.04248C2.61739 7.0291 1.97531 6.85966 1.3974 6.5478C1.37653 7.58956 1.72062 8.60504 2.36835 9.41335C2.99075 10.2047 3.85222 10.7663 4.82001 11.0116L4.79375 11.122H2.94941C3.69915 13.0704 5.06738 14.0827 7.11417 14.2958C5.28093 15.7162 3.00087 16.4102 0.700195 16.248Z" fill="white"/>
</g>
<defs>
<clipPath id="clip0">
<rect width="21.6" height="18" fill="white" transform="translate(0.700195 0.201172)"/>
</clipPath>
</defs>
</svg>
